<?xml version="1.0" encoding="utf-8"?>
<!-- Generator: Adobe Illustrator 18.1.1, SVG Export Plug-In . SVG Version: 6.00 Build 0)  -->
<svg version="1.1" id="Capa_1" xmlns="http://www.w3.org/2000/svg" xmlns:xlink="http://www.w3.org/1999/xlink" x="0px" y="0px"
	 viewBox="0 0 300 300" enable-background="new 0 0 300 300" xml:space="preserve">
<g>
	<path fill="#00BFF3" d="M23.1,235.8c12.7,0,23.1-10.3,23.1-23.1c0-5-1.6-9.6-4.3-13.4l55.3-55.3c3.9,3,8.8,4.8,14.1,4.8
		c5.3,0,10.2-1.8,14.1-4.8l31.4,31.4c-2.7,3.8-4.3,8.4-4.3,13.4c0,12.7,10.3,23.1,23.1,23.1c12.7,0,23.1-10.3,23.1-23.1
		c0-5-1.6-9.6-4.3-13.4l69.4-69.4c3.8,2.7,8.4,4.3,13.4,4.3c12.7,0,23.1-10.3,23.1-23.1s-10.3-23.1-23.1-23.1
		c-12.7,0-23.1,10.3-23.1,23.1c0,5,1.6,9.6,4.3,13.4l-69.4,69.4c-3.8-2.7-8.4-4.3-13.4-4.3s-9.6,1.6-13.4,4.3l-31.6-31.6
		c2.4-3.6,3.8-8,3.8-12.7c0-12.7-10.3-23.1-23.1-23.1c-12.7,0-23.1,10.3-23.1,23.1c0,4.7,1.4,9,3.8,12.7L36.5,194
		c-3.8-2.7-8.4-4.3-13.4-4.3C10.3,189.7,0,200,0,212.7C0,225.4,10.3,235.8,23.1,235.8z M261.5,87.3c0-8.5,6.9-15.5,15.5-15.5
		c8.5,0,15.5,7,15.5,15.5s-7,15.5-15.5,15.5c-2.9,0-5.6-0.8-7.9-2.2c-2.2-1.3-4-3.2-5.3-5.3C262.3,92.9,261.5,90.2,261.5,87.3z
		 M175.4,173.3c2.9,0,5.6,0.8,7.9,2.2c2.2,1.3,4,3.2,5.3,5.3c1.4,2.3,2.2,5,2.2,7.9c0,8.5-7,15.5-15.5,15.5
		c-8.5,0-15.5-6.9-15.5-15.5c0-2.9,0.8-5.6,2.2-7.9c1.3-2.2,3.2-4,5.3-5.3C169.8,174.1,172.5,173.3,175.4,173.3z M95.7,125.8
		c0-8.5,6.9-15.5,15.5-15.5c8.5,0,15.5,6.9,15.5,15.5c0,2.6-0.6,5-1.8,7.2c-1.2,2.3-2.9,4.2-5,5.7c-2.5,1.7-5.5,2.7-8.7,2.7
		c-3.2,0-6.2-1-8.7-2.7c-2.1-1.4-3.8-3.4-5-5.7C96.3,130.8,95.7,128.4,95.7,125.8z M23.1,197.2c2.9,0,5.6,0.8,7.9,2.2
		c2.2,1.3,4,3.2,5.3,5.3c1.4,2.3,2.2,5,2.2,7.9c0,8.5-6.9,15.5-15.5,15.5c-8.5,0-15.5-7-15.5-15.5C7.6,204.2,14.5,197.2,23.1,197.2z
		"/>
</g>
</svg>
