<?xml version="1.0" encoding="utf-8"?>
<!-- Generator: Adobe Illustrator 18.1.1, SVG Export Plug-In . SVG Version: 6.00 Build 0)  -->
<svg version="1.1" id="icons" xmlns="http://www.w3.org/2000/svg" xmlns:xlink="http://www.w3.org/1999/xlink" x="0px" y="0px"
	 viewBox="0 0 841.9 595.3" enable-background="new 0 0 841.9 595.3" xml:space="preserve">
<g>
	<g>
		<g>
			<path fill="#00BFF3" d="M420.9,467.3c-44.8,0-80-75.7-80-170.6c0-38.4,5.3-73.6,16-102.4l9.6,4.3c-9.6,28.8-14.9,62.9-14.9,100.2
				c0,86.4,32,159.9,69.3,159.9s69.3-73.6,69.3-159.9s-32-159.9-69.3-159.9c-7.5,0-14.9,3.2-22.4,9.6l-6.4-8.5
				c9.6-7.5,19.2-11.7,29.9-11.7c44.8,0,80,75.7,80,170.6S465.7,467.3,420.9,467.3z"/>
		</g>
		<g>
			<path fill="#00BFF3" d="M510.5,407.5c-36.2,0-83.2-13.9-129-41.6c-38.4-22.4-71.4-51.2-91.7-78.9c-21.3-29.9-26.7-56.5-16-75.7
				c22.4-38.4,105.6-32,187.6,16c33.1,19.2,61.8,41.6,81,65l-8.5,6.4c-20.3-22.4-46.9-45.8-78.9-62.9
				c-75.7-43.7-154.6-52.2-173.8-20.3c-8.5,14.9-3.2,38.4,14.9,64c20.3,27.7,51.2,54.4,88.5,75.7c75.7,43.7,154.6,52.2,173.8,20.3
				c3.2-6.4,4.3-13.9,4.3-21.3l10.7-1.1c1.1,10.7-1.1,20.3-5.3,27.7C558.5,399,537.2,407.5,510.5,407.5z"/>
		</g>
		<g>
			<path fill="#00BFF3" d="M331.4,407.5c-27.7,0-49-8.5-57.6-25.6c-4.3-8.5-6.4-17.1-5.3-27.7l10.7,1.1c-1.1,8.5,1.1,14.9,4.3,21.3
				c19.2,33.1,98.1,23.5,173.8-20.3c38.4-22.4,69.3-49,88.5-75.7c19.2-25.6,24.5-49,14.9-64c-19.2-33.1-98.1-23.5-173.8,20.3
				c-32,18.1-59.7,40.5-78.9,62.9l-8.5-6.4c20.3-24.5,49-46.9,81-65c83.2-48,165.3-54.4,187.6-16c11.7,19.2,5.3,45.8-16,75.7
				c-20.3,27.7-53.3,56.5-91.7,78.9C414.5,393.7,366.6,407.5,331.4,407.5z"/>
		</g>
		<g>
			<g>
				<path fill="#00BFF3" d="M277,360.6c-11.7,0-21.3-9.6-21.3-21.3c0-11.7,9.6-21.3,21.3-21.3c11.7,0,21.3,9.6,21.3,21.3
					C298.3,351,288.7,360.6,277,360.6z M277,328.6c-6.4,0-10.7,4.3-10.7,10.7c0,6.4,4.3,10.7,10.7,10.7c6.4,0,10.7-4.3,10.7-10.7
					C287.7,332.9,283.4,328.6,277,328.6z"/>
			</g>
		</g>
		<g>
			<g>
				<path fill="#00BFF3" d="M564.9,360.6c-11.7,0-21.3-9.6-21.3-21.3c0-11.7,9.6-21.3,21.3-21.3c11.7,0,21.3,9.6,21.3,21.3
					C586.2,351,576.6,360.6,564.9,360.6z M564.9,328.6c-6.4,0-10.7,4.3-10.7,10.7c0,6.4,4.3,10.7,10.7,10.7
					c6.4,0,10.7-4.3,10.7-10.7C575.5,332.9,571.3,328.6,564.9,328.6z"/>
			</g>
		</g>
		<g>
			<g>
				<path fill="#00BFF3" d="M383.6,174.1c-11.7,0-21.3-9.6-21.3-21.3c0-11.7,9.6-21.3,21.3-21.3c11.7,0,21.3,9.6,21.3,21.3
					C405,164.5,395.4,174.1,383.6,174.1z M383.6,142.1c-6.4,0-10.7,4.3-10.7,10.7c0,6.4,4.3,10.7,10.7,10.7
					c6.4,0,10.7-4.3,10.7-10.7C394.3,146.3,390,142.1,383.6,142.1z"/>
			</g>
		</g>
		<g>
			<g>
				<path fill="#00BFF3" d="M378.3,339.3h-10.7c0-28.8,24.5-40.5,36.2-42.6l1.1,10.7C405,307.3,378.3,311.6,378.3,339.3z"/>
			</g>
			<g>
				<path fill="#00BFF3" d="M474.3,339.3h-10.7c0-27.7-26.7-32-27.7-32l1.1-10.7C450.8,298.8,474.3,310.5,474.3,339.3z"/>
			</g>
			<g>
				<path fill="#00BFF3" d="M420.9,312.7c-18.1,0-32-17.1-32-40.5c0-16,4.3-35.2,32-35.2s32,19.2,32,35.2
					C452.9,295.6,439.1,312.7,420.9,312.7z M420.9,248.7c-16,0-21.3,6.4-21.3,24.5c0,14.9,7.5,29.9,21.3,29.9s21.3-14.9,21.3-29.9
					C442.3,255.1,436.9,248.7,420.9,248.7z"/>
			</g>
		</g>
	</g>
</g>
<rect fill="none" width="841.9" height="595.3"/>
</svg>
