<?xml version="1.0" encoding="utf-8"?>
<!-- Generator: Adobe Illustrator 18.1.1, SVG Export Plug-In . SVG Version: 6.00 Build 0)  -->
<svg version="1.1" id="icons" xmlns="http://www.w3.org/2000/svg" xmlns:xlink="http://www.w3.org/1999/xlink" x="0px" y="0px"
	 viewBox="0 0 841.9 595.3" enable-background="new 0 0 841.9 595.3" xml:space="preserve">
<g>
	<polyline fill="#00BFF3" points="390,444.1 390,396.2 400.3,396.2 400.3,444.1 	"/>
	<polyline fill="#00BFF3" points="441.6,444.1 441.6,396.2 451.9,396.2 451.9,444.1 	"/>
	<g>
		<path fill="#00BFF3" d="M457,401.5h-72.2c-6.2,0-10.3-4.3-10.3-10.6v-21.3h10.3v21.3H457v-21.3h10.3v21.3
			C467.4,397.3,463.2,401.5,457,401.5z"/>
	</g>
	<g>
		<path fill="#00BFF3" d="M420.9,380.2c-74.3,0-134.1-62.8-134.1-138.4s59.8-138.4,134.1-138.4S555,166.2,555,241.8
			S495.2,380.2,420.9,380.2z M420.9,114c-68.1,0-123.8,57.5-123.8,127.8s55.7,127.8,123.8,127.8s123.8-57.5,123.8-127.8
			S489,114,420.9,114z"/>
	</g>
	<g>
		<g>
			<path fill="#00BFF3" d="M420.9,252.5c-17.5,0-30.9-17-30.9-40.5c0-16,3.1-35.1,30.9-35.1s30.9,19.2,30.9,35.1
				C451.9,235.4,438.5,252.5,420.9,252.5z M420.9,188.6c-15.5,0-20.6,6.4-20.6,24.5c0,14.9,7.2,29.8,20.6,29.8s20.6-14.9,20.6-29.8
				C441.6,195,436.4,188.6,420.9,188.6z"/>
		</g>
		<g>
			<path fill="#00BFF3" d="M462.2,295h-82.5c-8.3,0-15.5-9.6-15.5-21.3v-13.8l39.2-22.4l5.2,9.6l-34,20.2v7.5
				c0,6.4,3.1,10.6,5.2,10.6h82.5c2.1,0,5.2-4.3,5.2-10.6v-7.5l-34-20.2l5.2-9.6l39.2,22.4v13.8C477.7,285.5,470.5,295,462.2,295z"
				/>
		</g>
	</g>
	<polyline fill="#00BFF3" points="415.8,444.1 415.8,412.2 426.1,412.2 426.1,444.1 	"/>
	<g>
		<path fill="#00BFF3" d="M420.9,358.9c-62.9,0-113.5-52.2-113.5-117.1S358,124.7,420.9,124.7s113.5,52.2,113.5,117.1
			S483.9,358.9,420.9,358.9z M420.9,135.3c-56.7,0-103.1,47.9-103.1,106.5s46.4,106.5,103.1,106.5s103.1-47.9,103.1-106.5
			S477.7,135.3,420.9,135.3z"/>
	</g>
	<g>
		<path fill="#00BFF3" d="M343.6,241.8h-10.3c0-50,39.2-90.5,87.7-90.5V162C377.6,162,343.6,198.2,343.6,241.8z"/>
	</g>
</g>
<rect fill="none" width="841.9" height="595.3"/>
</svg>
