<?xml version="1.0" encoding="utf-8"?>
<!-- Generator: Adobe Illustrator 18.1.1, SVG Export Plug-In . SVG Version: 6.00 Build 0)  -->
<svg version="1.1" id="Capa_1" xmlns="http://www.w3.org/2000/svg" xmlns:xlink="http://www.w3.org/1999/xlink" x="0px" y="0px"
	 viewBox="0 0 300 300" enable-background="new 0 0 300 300" xml:space="preserve">
<g>
	<path fill="#00BFF3" d="M250,99c-2.3,1.2-3.2,4-2,6.3c9.4,18,14.4,38.3,14.4,58.7c0,33.8-13.2,65.6-37.1,89.5
		c-23.9,23.9-55.7,37.1-89.5,37.1s-65.6-13.2-89.5-37.1c-23.9-23.9-37.1-55.7-37.1-89.5s13.2-65.6,37.1-89.5s55.7-37.1,89.5-37.1
		c20.5,0,40.8,5,58.8,14.4c2.3,1.2,5.1,0.3,6.3-2c1.2-2.3,0.3-5.1-2-6.3c-19.3-10.1-41.1-15.5-63.1-15.5
		c-36.3,0-70.4,14.1-96.1,39.8S0,127.8,0,164.1s14.1,70.4,39.8,96.1S99.6,300,135.9,300s70.4-14.1,96.1-39.8s39.8-59.8,39.8-96.1
		c0-22-5.4-43.8-15.5-63.1C255.2,98.7,252.3,97.8,250,99z"/>
	<path fill="#00BFF3" d="M196.1,80.2c1.4-2.2,0.8-5.1-1.4-6.5c-17.5-11.4-37.8-17.4-58.8-17.4c-59.4,0-107.8,48.4-107.8,107.8
		s48.4,107.8,107.8,107.8s107.8-48.4,107.8-107.8c0-21-6-41.3-17.4-58.8c-1.4-2.2-4.3-2.8-6.5-1.4c-2.2,1.4-2.8,4.3-1.4,6.5
		c10.4,16,15.9,34.5,15.9,53.7c0,54.3-44.2,98.4-98.4,98.4s-98.4-44.2-98.4-98.4s44.2-98.4,98.4-98.4c19.2,0,37.7,5.5,53.7,15.9
		C191.8,83,194.7,82.3,196.1,80.2z"/>
	<path fill="#00BFF3" d="M179.7,102.9c1.4-2.2,0.7-5.1-1.5-6.5c-12.6-7.9-27.3-12.1-42.3-12.1c-43.9,0-79.7,35.7-79.7,79.7
		s35.7,79.7,79.7,79.7s79.7-35.7,79.7-79.7c0-15-4.2-29.6-12.1-42.3c-1.4-2.2-4.3-2.9-6.5-1.5c-2.2,1.4-2.9,4.3-1.5,6.5
		c7,11.2,10.7,24,10.7,37.3c0,38.8-31.5,70.3-70.3,70.3s-70.3-31.5-70.3-70.3s31.5-70.3,70.3-70.3c13.2,0,26.1,3.7,37.3,10.7
		C175.4,105.8,178.3,105.1,179.7,102.9z"/>
	<path fill="#00BFF3" d="M160.6,123.9c1.1-2.3,0.2-5.1-2.2-6.3c-7-3.4-14.6-5.2-22.5-5.2c-28.4,0-51.6,23.1-51.6,51.6
		s23.1,51.6,51.6,51.6s51.6-23.1,51.6-51.6c0-7.9-1.7-15.5-5.2-22.5c-1.1-2.3-3.9-3.3-6.3-2.2c-2.3,1.1-3.3,3.9-2.2,6.3
		c2.8,5.8,4.2,12,4.2,18.4c0,23.3-18.9,42.2-42.2,42.2s-42.2-18.9-42.2-42.2s18.9-42.2,42.2-42.2c6.5,0,12.7,1.4,18.4,4.2
		C156.7,127.2,159.5,126.3,160.6,123.9z"/>
	<path fill="#00BFF3" d="M133,150.3c2.5-0.5,4.1-3,3.6-5.6c-0.5-2.5-3-4.1-5.6-3.6c-10.7,2.3-18.5,11.9-18.5,22.9
		c0,12.9,10.5,23.4,23.4,23.4c11.1,0,20.7-7.9,23-18.7c0.5-2.5-1.1-5-3.7-5.5c-2.5-0.5-5,1.1-5.5,3.7c-1.3,6.5-7.1,11.2-13.8,11.2
		c-7.8,0-14.1-6.3-14.1-14.1C121.9,157.5,126.6,151.7,133,150.3z"/>
	<path fill="#00BFF3" d="M299.6,31c-0.7-1.8-2.4-2.9-4.3-2.9h-23.4V4.7c0-1.9-1.1-3.6-2.9-4.3c-1.8-0.7-3.8-0.3-5.1,1L205.3,60
		c-0.9,0.9-1.4,2.1-1.4,3.3v26.2l-71.3,71.3c-1.8,1.8-1.8,4.8,0,6.6c0.9,0.9,2.1,1.4,3.3,1.4s2.4-0.5,3.3-1.4l71.3-71.3h26.2
		c1.2,0,2.4-0.5,3.3-1.4l58.6-58.6C300,34.8,300.4,32.8,299.6,31z M234.8,86.7h-14.9l36.5-36.5c1.8-1.8,1.8-4.8,0-6.6
		c-1.8-1.8-4.8-1.8-6.6,0l-36.5,36.5V65.2L262.5,16v16.8c0,2.6,2.1,4.7,4.7,4.7H284L234.8,86.7z"/>
</g>
</svg>
